<?xml version="1.0" encoding="utf-8"?>
<!-- Generator: Adobe Illustrator 26.2.1, SVG Export Plug-In . SVG Version: 6.00 Build 0)  -->
<svg version="1.1" xmlns="http://www.w3.org/2000/svg" xmlns:xlink="http://www.w3.org/1999/xlink" x="0px" y="0px"
	 viewBox="0 0 772.9 381.9" style="enable-background:new 0 0 772.9 381.9;" xml:space="preserve">
<style type="text/css">
	.st0{fill:#FFFFFF;}
	.st1{fill:#FFFFFF;stroke:#FFFFFF;stroke-width:3;stroke-miterlimit:10;}
	.st2{fill:none;}
</style>
<g id="Layer_2">
</g>
<g id="Layer_1">
	<g>
		<path class="st0" d="M177.8,86.1V12.6h-10.3v73.5c0,7.8,6.3,14.1,14.2,14.2h11.6V89.9h-11.6C179.5,89.9,177.8,88.2,177.8,86.1z"/>
		<path class="st0" d="M253.4,34h-39.1c-7.8,0-14.1,6.4-14.1,14.2v38c0,7.8,6.3,14.2,14.2,14.2h39.1c3.8,0,7.4-1.5,10.1-4.2
			c2.8-2.6,4.3-6.3,4.2-10.1V48c0-3.7-1.5-7.3-4.2-9.9C260.9,35.4,257.2,33.9,253.4,34z M253.4,90h-39.1c-2.1-0.1-3.8-1.7-3.8-3.8
			v-38c0-2.1,1.7-3.8,3.8-3.8l0,0h39.1c2.1,0.1,3.7,1.7,3.8,3.8v38C257.1,88.2,255.5,89.9,253.4,90L253.4,90z"/>
		<path class="st0" d="M288.2,86.1v-38c0-2.1,1.7-3.8,3.8-3.8h53.2V34h-53.2c-7.8,0-14.2,6.3-14.2,14.2v38c0,7.8,6.4,14.2,14.2,14.2
			h53.4V89.9h-53.4C290,89.9,288.2,88.2,288.2,86.1z"/>
		<polygon class="st0" points="407.2,34 381.6,62 364.5,62 364.5,12.6 354.1,12.6 354.1,100.3 364.5,100.3 364.5,72.3 381.6,72.3 
			407.2,100.3 420.8,100.3 390.8,67.1 420.9,34 		"/>
		<path class="st0" d="M480.4,34.1h-42.9c-7.7-0.1-14.1,6.1-14.2,13.8c0,0.1,0,0.1,0,0.2v38c-0.1,3.8,1.4,7.4,4.1,10.1
			c2.5,2.6,6,4.1,9.7,4.1h53.7V12.6h-10.3V34.1z M433.7,48.1c0-2.1,1.7-3.8,3.8-3.8l0,0h39.1c2.1,0,3.8,1.7,3.8,3.8v38
			c-0.1,2.1-1.7,3.8-3.8,3.8h-39.1c-2.1,0-3.8-1.7-3.8-3.8v0V48.1z"/>
		<path class="st0" d="M552.2,34H513c-7.8,0-14.2,6.3-14.2,14.2v38c0,7.8,6.3,14.2,14.2,14.2h39.2c7.8,0,14.2-6.3,14.2-14.2V48
			c0-3.8-1.6-7.4-4.2-10C559.5,35.4,555.9,33.9,552.2,34z M509.2,48.1c0-2.1,1.7-3.8,3.8-3.8l0,0h39.2c2.1,0,3.8,1.7,3.8,3.8v38
			c-0.1,2.1-1.7,3.8-3.8,3.8H513c-2.1-0.1-3.8-1.7-3.8-3.8L509.2,48.1z"/>
		<polygon class="st0" points="656.6,81.5 634.7,34 621.8,34 601.2,81.6 581.7,34 570.7,34 596.7,100.3 605.6,100.3 628.2,47.3 
			652.1,100.3 660.9,100.3 685.9,34 674.7,34 		"/>
		<path class="st0" d="M746.8,34h-53.4v66.3h10.3V48.1c0-1,0.4-2.1,1.2-2.8c0.8-0.7,1.7-1.1,2.8-1.1h39.1c2.1,0,3.8,1.7,3.8,3.8
			v52.2H761V48.1C761,40.3,754.6,34,746.8,34z"/>
		<path class="st0" d="M212.6,137.6v5.6h-40v16.5h32.2v5.7h-32.2v16.5h40v5.6H167v-50L212.6,137.6z"/>
		<path class="st0" d="M274.3,181.3v-43.6h5.6v50h-7.7L235.6,144v43.6H230v-50h7.7L274.3,181.3z"/>
		<path class="st0" d="M295.2,137.6h50v5.6H323v44.4h-5.6v-44.4h-22.2V137.6z"/>
		<path class="st0" d="M406,137.6v5.6h-40v16.5h32.2v5.7H366v16.5h40v5.6h-45.6v-50L406,137.6z"/>
		<path class="st0" d="M473.2,146v14.7c0,4.6-3.7,8.3-8.3,8.3h-7.6l15.7,18.6h-7.4L449.9,169h-18.3c-0.9-0.1-1.8-0.1-2.7-0.3v18.9
			h-5.6v-49.9h41.7C469.5,137.7,473.2,141.5,473.2,146z M431.6,163.3h33.3c1.4,0,2.6-1.1,2.6-2.6V146c0-0.7-0.3-1.4-0.8-1.9
			c-0.5-0.5-1.2-0.8-1.9-0.8h-33.3c-1.5,0-2.7,1.2-2.7,2.7v14.7c0,0.7,0.3,1.4,0.8,1.9C430.1,163.1,430.8,163.4,431.6,163.3
			L431.6,163.3z"/>
		<path class="st0" d="M490.5,137.7h41.7c4.6,0,8.3,3.7,8.3,8.3l0,0v14.7c0,4.6-3.7,8.3-8.3,8.3h-33.3c-0.9-0.1-1.8-0.1-2.7-0.3
			v18.9h-5.6V137.7z M534.9,160.7V146c0-1.5-1.2-2.7-2.7-2.7h-33.3c-1.5,0-2.7,1.2-2.7,2.7v14.7c0,1.4,1.1,2.6,2.6,2.6
			c0,0,0.1,0,0.1,0h33.3c0.7,0,1.4-0.3,2-0.8C534.6,162.1,534.9,161.4,534.9,160.7L534.9,160.7z"/>
		<path class="st0" d="M605.2,146v14.7c0,4.6-3.7,8.3-8.3,8.3h-7.6l15.7,18.6h-7.4L581.9,169h-18.3c-0.9-0.1-1.8-0.1-2.7-0.3v18.9
			h-5.6v-49.9h41.7C601.5,137.7,605.2,141.5,605.2,146z M563.6,163.3h33.3c1.4,0,2.6-1.1,2.6-2.6V146c0-0.7-0.3-1.4-0.8-1.9
			c-0.5-0.5-1.2-0.8-1.9-0.8h-33.3c-1.5,0-2.7,1.2-2.7,2.7v14.7c0,0.7,0.3,1.4,0.8,1.9C562.2,163.1,562.9,163.4,563.6,163.3
			L563.6,163.3z"/>
		<path class="st0" d="M622.6,187.6v-50h5.6v50H622.6z"/>
		<path class="st0" d="M697.3,146v1.9h-5.6V146c0-1.5-1.2-2.7-2.7-2.7h-33.3c-1.5,0-2.7,1.2-2.7,2.7v11.2c0,0.7,0.3,1.4,0.8,1.9
			c0.5,0.5,1.2,0.8,2,0.8h33.3c4.6,0,8.3,3.7,8.3,8.3v11.2c0,4.6-3.7,8.3-8.3,8.3h-33.3c-4.6,0-8.3-3.7-8.3-8.3v-1.9h5.6v1.9
			c0,1.5,1.2,2.7,2.7,2.7h33.3c1.5,0,2.7-1.2,2.7-2.7v-11.2c0-0.7-0.3-1.4-0.8-1.9c-0.5-0.5-1.2-0.8-1.9-0.8h-33.3
			c-4.6,0-8.3-3.7-8.3-8.3V146c0-4.6,3.7-8.3,8.3-8.3H689C693.6,137.7,697.3,141.4,697.3,146z"/>
		<path class="st0" d="M760.4,137.6v5.6h-40v16.5h32.2v5.7h-32.1v16.5h40v5.6h-45.6v-50L760.4,137.6z"/>
		<line class="st1" x1="166.6" y1="118.1" x2="761.5" y2="118.1"/>
		<g>
			<path class="st2" d="M81.4,115.4L81.4,115.4c-1.5,0-2.9,0.3-4.2,1c-1.4,0.7-2.6,1.6-3.7,2.7c-1,1.1-1.9,2.1-2.8,3.2
				c-0.2,0.2-0.3,0.3-0.4,0.5l-2.1,2.6l-2-2.7l-0.1-0.1l-0.3-0.3c-0.9-1.1-1.9-2.2-2.9-3.3c-1.1-1-2.3-1.8-3.6-2.6
				c-1.3-0.7-2.8-1.1-4.2-1.1c-3.6-0.1-7,1.3-9.5,3.9c-2.6,2.4-4,5.7-4.1,9.3v0.1l0.3,0.1c0,2.1,0.4,4.1,1.2,6
				c0.8,2,1.8,3.8,3.1,5.5c1.5,1.9,3.1,3.7,4.9,5.3c1.9,1.9,3.8,3.5,5.6,4.9l6.2,4.8c2.3,1.9,4.1,3.5,5.6,4.8h0.2
				c1.2-1,2.8-2.3,4.8-3.8l4.8-3.9c1.2-1,2.7-2.2,4.3-3.6c1.6-1.4,3-2.6,4-3.7c1-1.1,2.1-2.2,3.3-3.7c1-1.2,1.9-2.6,2.6-4
				c0.6-1.3,1.2-2.7,1.6-4c0.4-1.5,0.6-3,0.6-4.5c0.1-3.5-1.3-6.9-3.7-9.4C88.3,116.7,84.9,115.3,81.4,115.4z"/>
			<path class="st0" d="M125.6,183.2V92.5c0-2.6-2.1-4.7-4.7-4.7c0,0,0,0,0,0h-14.4V54.3c0-21.3-17.3-38.6-38.6-38.6
				c-21.3,0-38.6,17.3-38.6,38.6v33.5H14.9c-2.6,0-4.7,2.1-4.7,4.7v90.7c0,2.6,2.1,4.6,4.7,4.7h106.3c2.4,0.1,4.4-1.8,4.4-4.2
				C125.6,183.5,125.6,183.3,125.6,183.2z M93.8,133.2c-0.4,1.4-1,2.7-1.6,4c-0.7,1.4-1.6,2.8-2.6,4c-1.2,1.5-2.3,2.7-3.3,3.7
				c-1,1.1-2.4,2.3-4,3.7c-1.6,1.4-3.1,2.6-4.3,3.6l-4.8,3.9c-1.9,1.5-3.5,2.8-4.8,3.8h-0.2c-1.4-1.2-3.3-2.8-5.6-4.8l-6.2-4.8
				c-1.8-1.4-3.6-3.1-5.6-4.9c-1.8-1.6-3.4-3.4-4.9-5.3c-1.3-1.7-2.3-3.5-3.1-5.5c-0.8-1.9-1.2-3.9-1.2-6l-0.3-0.1v-0.1
				c0-3.5,1.5-6.9,4.1-9.3c2.5-2.5,6-3.9,9.5-3.9c1.5,0.1,2.9,0.4,4.2,1.1c1.3,0.7,2.5,1.6,3.6,2.6c1,1,2,2.1,2.9,3.3l0.3,0.3
				l0.1,0.1l2,2.7l2.1-2.6c0.1-0.2,0.3-0.4,0.4-0.5c0.9-1.1,1.8-2.1,2.8-3.2c1.1-1.1,2.3-2,3.7-2.7c1.3-0.6,2.7-1,4.1-1l0,0
				c3.5-0.1,6.9,1.3,9.3,3.9c2.5,2.5,3.8,5.9,3.7,9.4C94.4,130.2,94.2,131.8,93.8,133.2z M97.2,87.6H38.6V54.1
				C38.7,38,51.8,24.9,67.9,24.8l0,0c16.1,0,29.2,13.1,29.3,29.3V87.6z"/>
		</g>
	</g>
	<g>
		<g>
			<path class="st0" d="M386.5,272.1h11.4l18.5,28.7l18.5-28.7h11.4v46.7c16.1-16.6,15.7-43.2-0.9-59.3
				c-16.6-16.1-43.2-15.7-59.3,0.9c-15.9,16.4-15.7,42.6,0.4,58.8V272.1z"/>
			<path class="st0" d="M435.6,289.3L416.5,318h-0.3l-19.1-28.5v37.4c12.1,6.2,26.5,6.2,38.6-0.1V289.3z"/>
		</g>
		<path class="st0" d="M455.1,327.6l-1.8,1.7l-2.1,1.8c-0.9,0.7-1.9,1.4-3.1,2.2c-1.3,0.9-2.6,1.8-4,2.5c-0.7,0.4-1.5,0.9-2.3,1.4
			l-2.6,1.2c-4,1.8-8.2,3.1-12.6,4c-2.5,0.4-5,0.7-7.5,0.8c-1.3,0-2.7,0.2-3.9,0l-4.2-0.3c-5.7-0.7-11.3-2.2-16.5-4.5
			c-11.4-5.2-20.5-14.3-25.9-25.6c-2.7-5.7-4.3-11.8-4.9-18c-0.1-1.5-0.1-3.1-0.2-4.6v-0.4V289v-1.2l0.1-2.4c0-0.8,0.1-1.5,0.3-2.2
			l0.3-2.1c0.2-1.4,0.6-2.9,0.9-4.3c1.5-5.4,3.8-10.6,6.8-15.3c2.8-4.2,6.1-8,10-11.2c1.7-1.4,3.5-2.8,5.4-4c0.9-0.6,1.8-1,2.7-1.6
			c0.8-0.5,1.7-1,2.6-1.4c2.9-1.4,6-2.6,9.1-3.4l3.5-0.9l1.6-0.3v6.1l17.1-9.9l-17.1-9.7v6.4l-3,0.5l-4,1c-3.6,1-7,2.4-10.3,4.1
			c-1,0.4-2,1-2.9,1.5c-1,0.6-2,1.1-3,1.8c-2.1,1.4-4.1,2.9-6,4.6c-4.3,3.7-8,8-10.9,12.8c-3.4,5.3-5.8,11.2-7.3,17.3
			c-0.4,1.6-0.7,3.2-1,4.9l-0.3,2.6c-0.1,0.8-0.2,1.6-0.2,2.4l-0.1,2.4v1.2v0.6v0.1c0,0.3,0,0.1,0,0.2v0.5c0.1,1.7,0.2,3.4,0.3,5.1
			c2.3,20.7,15.6,38.6,34.7,46.8c5.7,2.4,11.8,3.8,17.9,4.3l4.2,0.1h0.9h0.3h1.1l2.1-0.2c2.6-0.2,5.3-0.6,7.9-1.1
			c4.5-1.1,8.8-2.6,12.9-4.7l2.7-1.4c0.8-0.5,1.6-1,2.3-1.5c1.4-0.8,2.7-1.7,4-2.7c1.1-0.9,2.2-1.7,3.1-2.5l2-2l1.7-1.7L455.1,327.6
			L455.1,327.6z"/>
		<path class="st0" d="M579.1,353.9L579.1,353.9c-0.1-8.2,6.4-14.9,14.6-15.1c0.1,0,0.3,0,0.4,0c4.1-0.2,8.1,1.2,11.2,4l-3.3,3.9
			c-2.2-2.1-5.2-3.2-8.2-3.1c-5.4,0-9.4,4.7-9.4,10.3v0.1c0,6,4,10.4,9.9,10.4c2.5,0,5-0.7,7-2.2v-5.5h-7.5v-4.5h12.4v12.2
			c-3.4,2.9-7.7,4.5-12.2,4.5C585.1,368.9,579.1,362.4,579.1,353.9L579.1,353.9z"/>
		<path class="st0" d="M615.5,339.3h13c3.1-0.2,6.1,0.9,8.4,2.9c1.6,1.7,2.5,4,2.4,6.3v0.1c0,4.8-2.9,7.7-7,8.8l7.9,11h-6l-7.2-10.2
			h-6.5v10.2h-5.1V339.3z M628.1,353.7c3.7,0,6-1.9,6-4.9v-0.1c0-3.1-2.3-4.8-6-4.8h-7.5v9.8H628.1z"/>
		<path class="st0" d="M645.8,353.9L645.8,353.9c0-8.4,6.8-15.3,15.2-15.3c8.4,0,15.3,6.8,15.3,15.2v0.1c0,8.4-6.8,15.3-15.2,15.3
			C652.7,369.2,645.8,362.4,645.8,353.9L645.8,353.9z M670.9,353.9L670.9,353.9c0.2-5.5-4.1-10.1-9.6-10.4c-0.1,0-0.2,0-0.3,0
			c-5.4,0-9.8,4.4-9.8,9.8c0,0.1,0,0.3,0,0.4v0.1c-0.2,5.5,4.1,10.1,9.6,10.4c0.1,0,0.2,0,0.3,0c5.4,0,9.8-4.4,9.8-9.8
			C670.9,354.3,670.9,354.1,670.9,353.9L670.9,353.9z"/>
		<path class="st0" d="M684.1,356v-16.8h5.1v16.6c0,5.5,2.7,8.3,7.4,8.3c4.6,0,7.3-2.7,7.3-8.1v-16.8h5.1v16.5
			c0,8.7-4.9,13.1-12.5,13.1S684.1,364.5,684.1,356z"/>
		<path class="st0" d="M718.6,339.3h11.5c6.8,0,11.1,3.9,11.1,9.7v0.1c0,6.5-5.2,9.9-11.7,9.9h-5.8v9.4h-5.1V339.3z M729.6,354.4
			c3.9,0,6.3-2.2,6.3-5.2v-0.1c0-3.4-2.5-5.2-6.3-5.2h-6v10.5H729.6z"/>
		<path class="st0" d="M748.9,347.9c-1.1,0-2.2-0.5-2.9-1.4l0.9-0.9c0.6,0.6,1.3,1,2.1,1c1.1,0,1.7-0.4,1.7-1.2c0-0.8-0.5-1-1.9-1.4
			c-1.8-0.5-2.6-1-2.6-2.4c0.1-1.3,1.2-2.4,2.6-2.3c0.1,0,0.1,0,0.2,0c1,0,2,0.4,2.7,1.1l-0.9,0.9c-0.5-0.5-1.2-0.8-1.9-0.8
			c-1,0-1.4,0.5-1.4,1c0,0.6,0.4,0.9,1.8,1.3c1.4,0.4,2.6,1,2.6,2.5S751.1,347.9,748.9,347.9L748.9,347.9z"/>
		<path class="st0" d="M759.6,347.8v-4.4c0-0.5,0-1.2,0-1.5c-0.1,0.2-0.3,0.8-0.5,1.4l-2,4.7l-2-4.7c-0.2-0.5-0.4-1.1-0.5-1.4
			c0,0.2,0,1,0,1.5v4.4h-1.2v-8.2h1.3l1.9,4.4c0.2,0.5,0.5,1.1,0.6,1.4c0.1-0.3,0.4-0.9,0.6-1.4l1.8-4.4h1.4v8.2L759.6,347.8z"/>
		<path class="st0" d="M470.9,279.1c-3.4,0-6.2-2.8-6.2-6.2c0-3.4,2.8-6.2,6.2-6.2c3.4,0,6.2,2.8,6.2,6.2c0,0,0,0,0,0
			C477.1,276.4,474.3,279.1,470.9,279.1z M465.5,323.8v-41.3h10.9v41.3H465.5z"/>
		<path class="st0" d="M511.8,323.8v-22.3c0-7.4-2.5-9.6-7-9.6c-4.5,0-7,2.2-7,9.3v22.5h-10.9v-41.3h10.9v2.7c2.6-2.4,6-3.7,9.6-3.6
			c10.6,0,15.3,7.2,15.3,18.9v23.2H511.8z"/>
		<path class="st0" d="M555.6,323.8v-2.6c-2.4,2.2-5.5,3.5-8.7,3.5c-8.8,0-16.1-6.6-16.1-22c0-12.3,5.8-21,16.1-21
			c3.2,0,6.3,1.1,8.7,3.2v-12.9l10.9-5.5v57.4H555.6z M555.6,295.4c-1.7-2.3-4.4-3.7-7.3-3.5c-4.2,0-6.4,3.6-6.4,10.6
			c0,8.5,2.8,12,7.1,12c2.7,0.1,5.2-1.2,6.7-3.5L555.6,295.4L555.6,295.4z"/>
		<path class="st0" d="M601.8,304.3h-12.1v19.5h-11v-55h24.1c10.4,0,19,5.7,19,17.5C621.7,299,613.2,304.3,601.8,304.3L601.8,304.3z
			 M602.3,279.5h-12.7v14.2h12.8c5.1,0,7.9-2.4,7.9-7.2S607.2,279.5,602.3,279.5L602.3,279.5z"/>
		<path class="st0" d="M643,324.7c-10.8,0-18.7-8.8-18.7-21.5s7.9-21.6,18.7-21.6c10.8,0,18.7,8.9,18.7,21.6S653.8,324.7,643,324.7z
			 M643,292.1c-5.2,0-7.6,4.7-7.6,11.1s2.4,10.9,7.6,10.9c5.2,0,7.7-5.3,7.7-10.9C650.8,296.9,648.2,292.1,643,292.1z"/>
		<path class="st0" d="M675.6,279.1c-3.4,0-6.2-2.8-6.2-6.2c0-3.4,2.8-6.2,6.2-6.2c3.4,0,6.2,2.8,6.2,6.2c0,0,0,0,0,0
			C681.7,276.4,679,279.1,675.6,279.1z M670.2,323.8v-41.3h10.9v41.3H670.2z"/>
		<path class="st0" d="M716.5,323.8v-22.3c0-7.4-2.5-9.6-7-9.6c-4.5,0-7.1,2.2-7.1,9.4v22.5h-10.9v-41.3h10.9v2.7
			c2.6-2.4,6.1-3.7,9.7-3.6c10.5,0,15.3,7.2,15.3,18.9v23.3H716.5z"/>
		<path class="st0" d="M759.9,322.2c-2.5,1.7-5.4,2.6-8.4,2.5c-6.7,0-11-5.2-11-12.4v-19.5h-6.9v-10.2h6.9v-10.6l10.9-5.5v16.1h9.9
			v10.2h-9.9v16.6c0,3.9,1.4,5,4,5c2,0,3.5-0.9,6.1-3.1L759.9,322.2L759.9,322.2z"/>
	</g>
</g>
</svg>
